HIERARCHY
ROOT Hips
{
  OFFSET 0.000000 0.000000 0.000000
  CHANNELS 6 Xposition Yposition Zposition Xrotation Yrotation Zrotation
  JOINT Spine
  {
    OFFSET 0.211591 24.227834 -3.764787
    CHANNELS 3 Xrotation Yrotation Zrotation
    JOINT Chest
    {
      OFFSET 0.211591 24.227834 -3.764787
      CHANNELS 3 Xrotation Yrotation Zrotation
      JOINT Neck
      {
        OFFSET -1.100772 8.441563 -3.430650
        CHANNELS 3 Xrotation Yrotation Zrotation
        JOINT Head
        {
          OFFSET -1.192129 7.757112 -7.601908
          CHANNELS 3 Xrotation Yrotation Zrotation
          End Site
          {
            OFFSET -0.357639 2.327134 -2.280572
          }
        }
      }
      JOINT LeftShoulder
      {
        OFFSET 17.192089 0.613400 -1.554494
        CHANNELS 3 Xrotation Yrotation Zrotation
        JOINT LeftArm
        {
          OFFSET 6.822346 -20.001605 -11.416031
          CHANNELS 3 Xrotation Yrotation Zrotation
          JOINT LeftForeArm
          {
            OFFSET -10.811707 -3.287858 -20.004664
            CHANNELS 3 Xrotation Yrotation Zrotation
            JOINT LeftHand
            {
              OFFSET -2.972239 -0.032078 -2.791873
              CHANNELS 3 Xrotation Yrotation Zrotation
              End Site
              {
                OFFSET -0.891672 -0.009623 -0.837562
              }
            }
          }
        }
      }
      JOINT RightShoulder
      {
        OFFSET -17.192089 -0.613400 1.554494
        CHANNELS 3 Xrotation Yrotation Zrotation
        JOINT RightArm
        {
          OFFSET -7.078612 -20.128798 -9.457155
          CHANNELS 3 Xrotation Yrotation Zrotation
          JOINT RightForeArm
          {
            OFFSET 6.068787 -1.370308 -22.325569
            CHANNELS 3 Xrotation Yrotation Zrotation
            JOINT RightHand
            {
              OFFSET 2.627653 0.279547 -3.282648
              CHANNELS 3 Xrotation Yrotation Zrotation
              End Site
              {
                OFFSET 0.788296 0.083864 -0.984794
              }
            }
          }
        }
      }
    }
  }
  JOINT LeftUpLeg
  {
    OFFSET 11.367086 0.027478 -2.758015
    CHANNELS 3 Xrotation Yrotation Zrotation
    JOINT LeftLeg
    {
      OFFSET 2.451199 -39.057141 -4.768226
      CHANNELS 3 Xrotation Yrotation Zrotation
      JOINT LeftFoot
      {
        OFFSET 10.058204 -39.973237 0.774249
        CHANNELS 3 Xrotation Yrotation Zrotation
        End Site
        {
          OFFSET 3.017461 -11.991971 0.232275
        }
      }
    }
  }
  JOINT RightUpLeg
  {
    OFFSET -11.367086 -0.027478 2.758015
    CHANNELS 3 Xrotation Yrotation Zrotation
    JOINT RightLeg
    {
      OFFSET -4.668361 -37.080477 -5.635053
      CHANNELS 3 Xrotation Yrotation Zrotation
      JOINT RightFoot
      {
        OFFSET -2.542494 -41.040053 5.594103
        CHANNELS 3 Xrotation Yrotation Zrotation
        End Site
        {
          OFFSET -0.762748 -12.312016 1.678231
        }
      }
    }
  }
}
MOTION
Frames: 19
Frame Time: 0.083333
0.000000 60.000000 0.000000 -0.697435 0.072172 0.388394 0.000000 0.000000 0.000000 0.352164 -0.273145 -0.732243 0.049267 -0.202876 0.003330 5.000000 0.000000 0.000000 2.134008 0.520733 0.727071 5.895954 -1.000451 -1.154307 0.000000 0.000000 0.000000 0.000000 0.000000 0.000000 1.197084 -0.093537 0.279395 2.056793 -0.027776 0.136926 0.000000 0.000000 0.000000 0.000000 0.000000 0.000000 -3.584933 -0.164938 -2.674436 2.383763 -0.338972 2.446527 0.000000 0.000000 0.000000 -5.610259 0.372621 3.901412 4.915067 -0.825413 -5.153828 0.000000 0.000000 0.000000
0.000449 60.000266 0.064798 -0.696426 0.072060 0.387906 0.000000 0.000000 0.000000 0.344337 -0.283232 -0.751851 0.050549 -0.217908 0.000930 5.000000 0.000000 0.000000 2.059839 0.528660 0.806550 5.083871 -0.949739 -1.101095 0.000000 0.000000 0.000000 0.000000 0.000000 0.000000 1.389210 -0.090687 0.215232 1.584120 0.060154 0.242048 0.000000 0.000000 0.000000 0.000000 0.000000 0.000000 -3.731092 -0.152924 -2.504166 2.373615 -0.302567 2.413572 0.000000 0.000000 0.000000 -5.618789 0.345828 3.923805 4.892745 -0.769467 -4.931932 0.000000 0.000000 0.000000
0.001485 60.000902 1.252628 -0.696429 0.072041 0.387790 0.000000 0.000000 0.000000 0.344337 -0.283513 -0.752442 0.050625 -0.218365 0.000869 5.000000 0.000000 0.000000 5.600367 1.547209 2.648484 12.206631 -2.508389 -3.018620 0.000000 0.000000 0.000000 0.000000 0.000000 0.000000 4.491161 -0.062978 0.349915 3.039034 0.253497 1.157303 57.556126 -27.583401 22.660827 0.000000 0.000000 0.000000 -3.063279 -0.243429 -2.562390 -1.083402 -1.128209 3.317093 0.000000 0.000000 0.000000 -6.112955 0.516503 3.199344 3.926464 -0.884594 -5.427420 0.000000 0.000000 0.000000
0.002511 60.001563 4.544740 -1.294158 0.154744 0.856547 0.000000 0.000000 0.000000 0.441234 -0.837259 -2.130641 0.095965 -0.871687 -0.089092 5.000000 0.000000 0.000000 7.520168 2.413062 4.842437 13.058331 -3.253417 -4.209781 0.000000 0.000000 0.000000 0.000000 0.000000 0.000000 7.799330 0.737223 -0.415005 0.974629 0.119458 3.220983 0.000000 0.000000 0.000000 0.000000 0.000000 0.000000 -2.243862 -0.184517 -1.260007 -4.156142 -1.277020 5.409581 0.000000 0.000000 0.000000 -5.787210 0.439423 2.766488 2.023381 -0.551365 -4.505605 0.000000 0.000000 0.000000
0.002903 60.002031 8.986009 -0.529289 0.100739 0.602086 0.000000 0.000000 0.000000 -0.446715 -1.404389 -3.241291 0.109459 -1.954868 -0.322622 5.000000 0.000000 0.000000 7.638710 3.154434 5.974772 14.776578 -3.725908 -4.376320 0.000000 0.000000 0.000000 0.000000 0.000000 0.000000 9.248062 2.213234 -1.571488 -0.759361 -1.246344 5.459148 63.933186 -13.281772 40.191816 0.000000 0.000000 0.000000 1.620820 0.027106 0.134322 -7.795397 -1.045039 7.765697 0.000000 0.000000 0.000000 -3.827816 0.321662 2.283297 -1.932747 -0.312545 -4.250062 0.000000 0.000000 0.000000
0.002755 60.002193 13.243817 -0.719233 0.011652 0.039165 0.000000 0.000000 0.000000 -0.197812 -1.830454 -3.874633 0.384503 -2.617030 -0.360807 5.000000 0.000000 0.000000 6.415836 4.490189 4.544715 19.692712 -4.854882 -2.316345 0.000000 0.000000 0.000000 0.000000 0.000000 0.000000 10.155104 1.574171 -0.329786 -1.161749 -1.085027 4.867352 0.000000 0.000000 0.000000 0.000000 0.000000 0.000000 7.954533 0.416334 1.267016 -13.954325 -1.349193 5.005641 0.000000 0.000000 0.000000 -1.551281 0.280606 1.416025 -8.316811 -0.490387 -5.025249 0.000000 0.000000 0.000000
0.002803 60.002519 16.226830 -1.190066 -0.068065 -0.466524 0.000000 0.000000 0.000000 1.091690 -1.830847 -4.066518 0.712883 -2.780282 -0.390685 5.000000 0.000000 0.000000 2.389374 6.105538 0.879859 27.927818 -4.786321 2.228059 0.000000 0.000000 0.000000 0.000000 0.000000 0.000000 8.697912 -1.226185 6.385185 1.070610 0.855484 -1.255292 0.000000 0.000000 0.000000 0.000000 0.000000 0.000000 13.448338 0.909996 1.906470 -17.900899 -1.329608 3.995323 0.000000 0.000000 0.000000 -0.048059 0.299238 1.413492 -16.328193 -0.839177 -6.966480 0.000000 0.000000 0.000000
0.003215 60.002967 17.363649 -1.463879 -0.154012 -1.014424 0.000000 0.000000 0.000000 1.721368 -1.950213 -4.249411 1.110507 -3.114890 -0.558543 5.000000 0.000000 0.000000 0.743556 6.244481 -0.451688 29.307483 -4.263930 3.734587 0.000000 0.000000 0.000000 0.000000 0.000000 0.000000 9.085854 -3.509482 10.486511 3.780975 2.354070 -5.445734 0.000000 0.000000 0.000000 0.000000 0.000000 0.000000 12.659042 1.296498 2.910073 -19.051821 -1.479594 4.369729 0.000000 0.000000 0.000000 0.906245 0.375852 1.712783 -19.365143 -0.402125 -4.398124 0.000000 0.000000 0.000000
0.003878 60.002786 17.666136 -0.270787 -0.320767 -2.114475 0.000000 0.000000 0.000000 0.442402 -1.881798 -3.221966 1.081814 -3.271740 -0.640748 5.000000 0.000000 0.000000 1.995650 5.091462 0.842443 26.072152 -3.738442 1.685521 0.000000 0.000000 0.000000 0.000000 0.000000 0.000000 8.523046 -1.194063 5.752838 1.149296 0.839332 -1.086120 0.000000 0.000000 0.000000 0.000000 0.000000 0.000000 9.018844 1.627599 4.957731 -19.236209 -1.635993 5.421397 0.000000 0.000000 0.000000 2.089808 0.562352 2.686265 -19.555668 0.000707 -1.474888 0.000000 0.000000 0.000000
0.005086 60.001746 18.507004 1.189883 -0.588136 -4.016939 0.000000 0.000000 0.000000 -1.316375 -1.501821 -0.589747 0.506742 -2.891732 -0.320532 5.000000 0.000000 0.000000 6.018876 4.134990 3.515969 21.962343 -3.664368 -2.119496 0.000000 0.000000 0.000000 0.000000 0.000000 0.000000 6.830048 0.592241 2.157507 -0.024280 -0.326094 1.707818 0.000000 0.000000 0.000000 0.000000 0.000000 0.000000 5.960363 1.374792 5.260090 -18.612249 -1.472751 7.357871 0.000000 0.000000 0.000000 1.461479 0.433983 2.540438 -15.779901 -0.486014 -2.373591 0.000000 0.000000 0.000000
0.005944 60.000856 20.812912 3.099376 -0.568994 -4.214054 0.000000 0.000000 0.000000 -3.503587 -1.371565 0.488693 -0.093467 -2.446848 -0.081206 5.000000 0.000000 0.000000 7.987872 3.138693 4.268202 8.983295 -3.814606 -3.092872 0.000000 0.000000 0.000000 0.000000 0.000000 0.000000 5.007743 1.327819 0.020369 -3.112695 -0.875656 2.634729 0.000000 0.000000 0.000000 0.000000 0.000000 0.000000 4.830643 0.992110 4.156009 -20.195946 -1.548341 8.221900 0.000000 0.000000 0.000000 0.720433 0.191377 1.044508 -17.213984 -1.060630 -4.059140 0.000000 0.000000 0.000000
0.005664 60.000845 23.544166 4.272419 -0.392488 -2.955350 0.000000 0.000000 0.000000 -4.806614 -1.099223 0.309535 -0.524692 -1.837042 0.030307 5.000000 0.000000 0.000000 6.162118 1.264840 2.407964 -1.761895 -2.823828 -2.158140 0.000000 0.000000 0.000000 0.000000 0.000000 0.000000 -0.338893 0.833855 0.520978 -2.846995 -0.828956 -0.123133 0.000000 0.000000 0.000000 0.000000 0.000000 0.000000 4.663107 0.435531 1.469323 -21.450011 -1.471647 9.114862 0.000000 0.000000 0.000000 0.874381 -0.163823 -2.388865 -19.658983 -1.099139 -2.605136 0.000000 0.000000 0.000000
0.004735 60.000811 25.013107 5.034795 -0.070208 -0.085948 0.000000 0.000000 0.000000 -5.272034 -0.182085 -0.460943 -0.639404 -0.142327 0.355541 5.000000 0.000000 0.000000 1.254523 -0.493014 -1.167701 -1.694391 -0.653967 -0.234366 -63.105144 -25.396863 47.664868 0.000000 0.000000 0.000000 -8.207537 0.774407 2.846838 6.926707 -0.952913 -4.419713 43.020580 0.230222 24.657390 0.000000 0.000000 0.000000 4.237167 -0.218694 -0.992518 -19.381326 -0.742180 11.073412 0.000000 0.000000 0.000000 1.713671 -0.725755 -5.730091 -19.234958 -0.320861 1.584047 0.000000 0.000000 0.000000
0.003927 60.000026 23.451719 5.930808 0.254004 2.838445 0.000000 0.000000 0.000000 -6.030655 0.632286 -1.302601 -0.329281 1.352777 0.496842 5.000000 0.000000 0.000000 -1.301767 -0.535325 -3.180487 -0.278962 0.355634 1.324823 0.000000 0.000000 0.000000 0.000000 0.000000 0.000000 -8.037259 0.272662 3.404574 6.169132 -0.468839 -5.478711 0.000000 0.000000 0.000000 0.000000 0.000000 0.000000 5.368821 -0.899307 -1.932798 -14.068234 0.399289 12.438199 0.000000 0.000000 0.000000 3.681867 -1.332709 -6.917203 -16.096410 1.111329 6.040676 0.000000 0.000000 0.000000
0.001883 59.998890 19.819657 4.619912 0.511112 4.792510 0.000000 0.000000 0.000000 -4.763353 0.653749 -2.893126 -0.121828 1.462769 0.387430 5.000000 0.000000 0.000000 2.557286 -0.485551 -0.880323 -0.321393 1.175354 -1.054483 0.000000 0.000000 0.000000 0.000000 0.000000 0.000000 -3.393270 -0.395426 1.713919 5.901536 1.220344 -3.307504 47.006307 -36.571711 1.135067 0.000000 0.000000 0.000000 4.734938 -1.204582 -2.819612 -7.471294 0.978424 12.236283 0.000000 0.000000 0.000000 0.387331 -1.172914 -5.724441 -11.306490 2.229264 7.520360 0.000000 0.000000 0.000000
-0.000838 59.998096 16.227940 4.003600 0.676587 5.862179 0.000000 0.000000 0.000000 -4.845684 0.393714 -4.311869 -0.528793 1.041029 0.167256 5.000000 0.000000 0.000000 7.291436 -1.265901 2.344296 0.568222 1.683972 -4.565589 0.000000 0.000000 0.000000 0.000000 0.000000 0.000000 2.088823 -1.539561 0.721978 8.901198 2.727441 -1.881785 0.000000 0.000000 0.000000 0.000000 0.000000 0.000000 4.225386 -1.209648 -5.958167 -1.860945 0.866019 10.401241 0.000000 0.000000 0.000000 -3.569385 -0.843562 -3.918621 -3.084636 1.598213 1.681695 0.000000 0.000000 0.000000
-0.001385 59.997620 14.851331 2.697492 0.909035 7.085866 0.000000 0.000000 0.000000 -4.917987 0.159010 -5.581839 -1.047874 0.819477 -0.038617 5.000000 0.000000 0.000000 9.121516 -1.876469 2.830728 0.982130 2.400858 -5.889757 0.000000 0.000000 0.000000 0.000000 0.000000 0.000000 1.430575 -1.768404 0.927703 11.480936 2.894011 -2.653230 0.000000 0.000000 0.000000 0.000000 0.000000 0.000000 3.184578 -0.767557 -8.997018 0.539193 0.604526 8.453820 0.000000 0.000000 0.000000 -3.975598 -0.716054 -3.537092 0.195057 1.084570 1.156534 0.000000 0.000000 0.000000
-0.001022 59.997347 15.779666 1.690818 0.989174 7.164687 0.000000 0.000000 0.000000 -4.194635 0.285811 -5.024035 -0.984983 1.292454 -0.009289 5.000000 0.000000 0.000000 9.949471 -1.605375 1.114562 0.009951 2.197799 -5.023763 0.000000 0.000000 0.000000 0.000000 0.000000 0.000000 -2.671353 -2.155030 4.071062 9.993132 3.194552 -7.162861 0.000000 0.000000 0.000000 0.000000 0.000000 0.000000 3.968063 -0.671852 -9.328328 1.604179 0.698824 7.290295 0.000000 0.000000 0.000000 -3.556906 -0.641376 -3.102164 -0.075516 0.894047 0.529487 0.000000 0.000000 0.000000
-0.000645 59.997370 18.103054 0.459107 0.978256 6.468673 0.000000 0.000000 0.000000 -2.770813 0.514461 -3.416204 -0.593132 2.155541 0.251198 5.000000 0.000000 0.000000 7.145367 -0.924178 -1.815933 3.557457 1.634836 -2.723176 0.000000 0.000000 0.000000 0.000000 0.000000 0.000000 -7.561269 -2.582278 8.603851 13.511237 3.615688 -12.384666 0.000000 0.000000 0.000000 0.000000 0.000000 0.000000 4.321979 -0.428831 -8.236921 1.278896 0.651510 9.074532 0.000000 0.000000 0.000000 -4.391856 -0.413326 -1.954320 -1.840504 1.242315 0.432993 0.000000 0.000000 0.000000
